<svg width="61" height="27" viewBox="0 0 61 27" fill="none" xmlns="http://www.w3.org/2000/svg">
<g clip-path="url(#clip0_735_1248)">
<path d="M7.10054 0H4.19629V11.9264H7.10054V0Z" fill="#D9D9D9"/>
<path d="M8.9157 0H8.0188V11.9264H8.9157V0Z" fill="#D9D9D9"/>
<path d="M11.3127 0H9.70044V11.9264H11.3127V0Z" fill="#D9D9D9"/>
<path d="M13.7685 0H12.8662V11.9264H13.7685V0Z" fill="#D9D9D9"/>
<path fill-rule="evenodd" clip-rule="evenodd" d="M12.8715 22.5125C12.8715 22.5496 12.8715 22.5867 12.8662 22.6185V22.3218C12.8715 22.3854 12.8715 22.4489 12.8715 22.5125Z" fill="#D9D9D9"/>
<path d="M14.8522 0H14.1582V11.9264H14.8522V0Z" fill="#D9D9D9"/>
<path fill-rule="evenodd" clip-rule="evenodd" d="M1.98608 0H2.88832V27H1.98608V0Z" fill="#D9D9D9"/>
<path fill-rule="evenodd" clip-rule="evenodd" d="M0 0H1.61229V27H0V0Z" fill="#D9D9D9"/>
<path d="M22.5719 0H19.6624V11.9264H22.5719V0Z" fill="#D9D9D9"/>
<path d="M24.3871 0H23.4849V11.9264H24.3871V0Z" fill="#D9D9D9"/>
<path d="M26.7842 0H25.1719V11.9264H26.7842V0Z" fill="#D9D9D9"/>
<path d="M29.2348 0H28.3379V11.9264H29.2348V0Z" fill="#D9D9D9"/>
<path d="M30.3239 0H29.6299V11.9264H30.3239V0Z" fill="#D9D9D9"/>
<path d="M18.3544 0H17.4575V11.9264H18.3544V0Z" fill="#D9D9D9"/>
<path fill-rule="evenodd" clip-rule="evenodd" d="M25.172 18.6553C24.9905 18.295 24.7556 17.9718 24.4726 17.6857C24.4459 17.6592 24.4192 17.6274 24.3872 17.6062C24.1149 17.3307 23.8106 17.1029 23.4849 16.928C23.1967 16.7638 22.8923 16.6366 22.572 16.5413C22.1182 16.4088 21.6271 16.3452 21.1039 16.3452C20.5807 16.3452 20.1109 16.4088 19.6624 16.5413C19.1926 16.6684 18.7549 16.8697 18.3545 17.1453C18.2156 17.2353 18.0875 17.336 17.9594 17.4473C17.7779 17.6062 17.607 17.7757 17.4576 17.9665C17.3187 18.136 17.1906 18.3268 17.0838 18.5228C16.6354 19.3122 16.4165 20.3136 16.4165 21.5163C16.4165 22.719 16.6354 23.6992 17.0838 24.494C17.1853 24.6953 17.3134 24.886 17.4576 25.0609C17.5376 25.1668 17.6231 25.2622 17.7138 25.3576C17.9113 25.5642 18.1249 25.7444 18.3545 25.898C18.7495 26.1735 19.182 26.3748 19.6624 26.5073C20.1055 26.6292 20.586 26.6874 21.1039 26.6874C21.6217 26.6874 22.1076 26.6186 22.572 26.4808C22.887 26.3854 23.1913 26.2583 23.4849 26.0993C23.4956 26.094 23.5063 26.0887 23.517 26.0834C23.8426 25.9086 24.1309 25.6967 24.3872 25.4582C24.7022 25.1668 24.9638 24.8225 25.172 24.4357C25.1827 24.4198 25.1933 24.3986 25.204 24.3827C25.5884 23.6515 25.7806 22.6502 25.7806 21.3786C25.7806 20.3136 25.5831 19.4076 25.172 18.6553ZM23.4849 23.9747C23.4049 24.1178 23.3141 24.2449 23.2073 24.3615C23.0151 24.584 22.8016 24.7642 22.572 24.9072C22.1449 25.1774 21.6538 25.3152 21.1039 25.3152C20.554 25.3152 20.0842 25.188 19.6624 24.9284C19.4169 24.7854 19.1926 24.5999 18.9898 24.3668C18.7068 24.0489 18.4933 23.6462 18.3545 23.1641C18.221 22.6925 18.1516 22.1468 18.1516 21.5216C18.1516 20.8964 18.221 20.3507 18.3545 19.8845C18.4933 19.397 18.7068 18.9996 18.9898 18.6818C19.1926 18.4486 19.4169 18.2632 19.6624 18.1201C20.0842 17.8658 20.5647 17.7387 21.1039 17.7387C21.6431 17.7387 22.1449 17.8764 22.572 18.1519C22.8016 18.2897 23.0098 18.4698 23.202 18.6871C23.3088 18.8089 23.4049 18.9361 23.4849 19.0791C23.8587 19.6831 24.0455 20.4779 24.0455 21.4686C24.0455 22.523 23.864 23.3601 23.4849 23.9747Z" fill="#D9D9D9"/>
<path d="M17.0837 0H15.4714V11.9264H17.0837V0Z" fill="#D9D9D9"/>
<path d="M33.0733 0H31.4663V11.9264H33.0733V0Z" fill="#D9D9D9"/>
<path d="M35.529 0H34.6267V11.9264H35.529V0Z" fill="#D9D9D9"/>
<path d="M36.6128 0H35.9241V11.9264H36.6128V0Z" fill="#D9D9D9"/>
<path d="M40.1203 0H39.218V11.9264H40.1203V0Z" fill="#D9D9D9"/>
<path d="M38.8445 0H37.2322V11.9264H38.8445V0Z" fill="#D9D9D9"/>
<path d="M42.2184 0H41.3162V11.9264H42.2184V0Z" fill="#D9D9D9"/>
<path d="M43.3022 0H42.6082V11.9264H43.3022V0Z" fill="#D9D9D9"/>
<path d="M46.8043 0H45.9021V11.9264H46.8043V0Z" fill="#D9D9D9"/>
<path d="M45.5285 0H43.9163V11.9264H45.5285V0Z" fill="#D9D9D9"/>
<path d="M50.4934 0H47.5891V11.9264H50.4934V0Z" fill="#D9D9D9"/>
<path fill-rule="evenodd" clip-rule="evenodd" d="M56.2592 18.6923C56.0724 18.3162 55.8321 17.9824 55.5385 17.6857C55.2823 17.4208 55.0047 17.1982 54.7057 17.0181C54.2252 16.7161 53.686 16.5201 53.0934 16.4247C52.8425 16.377 52.5809 16.3505 52.3086 16.3505C52.2659 16.3452 52.2178 16.3452 52.1698 16.3452C51.9082 16.3452 51.6573 16.3611 51.4117 16.3982C51.0914 16.4353 50.7871 16.5095 50.4934 16.6101C49.9542 16.7903 49.4631 17.0711 49.0253 17.4473C48.2672 18.0936 47.7867 19.0049 47.5892 20.1759C47.5198 20.5891 47.4824 21.0342 47.4824 21.5163C47.4824 21.9985 47.5198 22.4329 47.5892 22.8409C47.76 23.8794 48.1604 24.7218 48.7744 25.3576C49.2602 25.8609 49.8368 26.2159 50.4934 26.4278C50.7817 26.5338 51.0914 26.5974 51.4117 26.6345C51.6573 26.6715 51.9082 26.6874 52.1698 26.6874C52.2178 26.6874 52.2606 26.6874 52.3086 26.6821C52.5755 26.6768 52.8371 26.6557 53.0934 26.608C53.6166 26.5179 54.1131 26.3431 54.5829 26.0834C54.6256 26.0622 54.6683 26.0358 54.7057 26.0093C55.3784 25.6172 55.8962 25.0821 56.2592 24.3986C56.2646 24.3933 56.2646 24.388 56.2699 24.3827C56.6543 23.6515 56.8465 22.6502 56.8465 21.3786C56.8465 20.3348 56.6543 19.4341 56.2592 18.6923ZM54.7057 23.6833C54.5936 23.9429 54.4441 24.1655 54.2733 24.3615C53.9316 24.7483 53.5418 25.0185 53.0934 25.1668C52.8478 25.2516 52.5862 25.2993 52.3086 25.3099C52.2659 25.3152 52.2178 25.3152 52.1698 25.3152C51.9029 25.3152 51.6519 25.2834 51.4117 25.2198C51.0754 25.135 50.7711 24.9814 50.4934 24.7695C50.3386 24.6582 50.1945 24.5205 50.0557 24.3668C49.4951 23.7363 49.2175 22.7879 49.2175 21.5216C49.2175 20.2553 49.4951 19.3069 50.0557 18.6818C50.1945 18.5281 50.3386 18.3903 50.4934 18.2791C50.7711 18.0672 51.0754 17.9188 51.4117 17.834C51.6519 17.7704 51.9029 17.7387 52.1698 17.7387C52.2178 17.7387 52.2659 17.7387 52.3086 17.744C52.5862 17.7546 52.8478 17.8022 53.0934 17.887C53.5365 18.0354 53.9262 18.3056 54.2679 18.6871C54.4441 18.8831 54.5882 19.1056 54.7057 19.3599C54.978 19.9215 55.1114 20.6262 55.1114 21.4686C55.1114 22.3641 54.978 23.1058 54.7057 23.6833Z" fill="#D9D9D9"/>
<path d="M52.3085 0H51.4116V11.9264H52.3085V0Z" fill="#D9D9D9"/>
<path d="M54.7056 0H53.0933V11.9264H54.7056V0Z" fill="#D9D9D9"/>
<path d="M57.1615 0H56.2593V11.9264H57.1615V0Z" fill="#D9D9D9"/>
<path d="M58.2453 0H57.5513V11.9264H58.2453V0Z" fill="#D9D9D9"/>
<path fill-rule="evenodd" clip-rule="evenodd" d="M59.3877 0H61V27H59.3877V0Z" fill="#D9D9D9"/>
<path fill-rule="evenodd" clip-rule="evenodd" d="M12.8662 22.3218V22.6185C12.8715 22.5867 12.8715 22.5496 12.8715 22.5125C12.8715 22.4489 12.8715 22.3854 12.8662 22.3218Z" fill="white"/>
<path fill-rule="evenodd" clip-rule="evenodd" d="M38.8445 20.2075V20.5731H38.8872C38.8765 20.4459 38.8605 20.3241 38.8445 20.2075Z" fill="white"/>
<path d="M14.1582 20.5414C14.1368 20.5043 14.1101 20.4725 14.0834 20.4354C13.9873 20.3083 13.8806 20.1917 13.7684 20.0805C13.5122 19.8367 13.2132 19.6301 12.8662 19.4659C12.6527 19.3546 12.4124 19.2698 12.1615 19.1957C12.4231 19.0685 12.658 18.9201 12.8662 18.7559C13.1705 18.5228 13.4161 18.2473 13.6083 17.94C13.667 17.8446 13.7204 17.7492 13.7684 17.6486C13.9767 17.2194 14.0834 16.769 14.0834 16.2922C14.0834 15.8154 13.982 15.3491 13.7684 14.8988C13.7044 14.761 13.6296 14.6232 13.5442 14.4855C13.3574 14.1835 13.1278 13.9239 12.8662 13.7066C12.626 13.5 12.3537 13.3358 12.0494 13.2033C11.8305 13.1079 11.5849 13.0285 11.3126 12.9649C10.8482 12.8589 10.3143 12.8006 9.70036 12.79H4.33496V26.4808H9.70036C10.3036 26.4755 10.8428 26.4331 11.3126 26.3536C11.4942 26.3271 11.665 26.29 11.8305 26.2477C12.2149 26.1523 12.5619 26.0251 12.8662 25.8609C13.037 25.7761 13.1919 25.6807 13.336 25.5748C13.4855 25.4582 13.6296 25.3258 13.7684 25.1774C13.9073 25.0185 14.0407 24.8383 14.1582 24.6423C14.2276 24.531 14.2916 24.4198 14.3504 24.2979C14.6226 23.7469 14.7614 23.1535 14.7614 22.5071C14.7614 21.76 14.5639 21.103 14.1582 20.5414ZM6.16614 14.3954H8.92624C9.2092 14.3954 9.46545 14.4007 9.70036 14.4113C10.2876 14.4378 10.7307 14.4961 11.0244 14.5862C11.1258 14.6179 11.2219 14.655 11.3126 14.7027C11.5796 14.8405 11.7985 15.0365 11.964 15.3014C12.1829 15.6458 12.295 16.0432 12.295 16.4988C12.295 16.981 12.1775 17.3836 11.9426 17.7015C11.7878 17.9135 11.5742 18.0883 11.3126 18.2208C11.1845 18.2843 11.0457 18.3373 10.8909 18.385C10.624 18.4645 10.2289 18.5175 9.70036 18.5334C9.52952 18.5387 9.348 18.544 9.15047 18.544H6.16614V14.3954ZM12.8662 22.6183C12.8555 23.0104 12.7648 23.3601 12.5993 23.6674C12.4178 24.0012 12.1829 24.2608 11.8999 24.4356C11.7291 24.5416 11.5315 24.6264 11.3126 24.69C11.1685 24.7376 11.0137 24.7747 10.8482 24.8065C10.6186 24.8489 10.2396 24.8701 9.70036 24.8754H6.16614V20.1493H9.35868C9.47613 20.1493 9.58824 20.1493 9.70036 20.1493C10.3784 20.1652 10.9176 20.2341 11.3126 20.3507C11.334 20.3613 11.3554 20.3666 11.3767 20.3719C11.8465 20.5255 12.2095 20.7904 12.4711 21.1719C12.706 21.5004 12.8342 21.8819 12.8662 22.3163C12.8715 22.3799 12.8715 22.4435 12.8715 22.5071C12.8715 22.5442 12.8715 22.5812 12.8662 22.613V22.6183Z" fill="#D9D9D9"/>
<path d="M29.427 12.79H27.7292V26.4808H29.427V12.79Z" fill="#D9D9D9"/>
<path d="M40.6808 21.5004C40.6808 20.4249 40.4993 19.503 40.1203 18.7453C39.9387 18.3533 39.6985 18.0036 39.4102 17.6963C39.3461 17.6274 39.2821 17.5638 39.218 17.5108C39.1006 17.389 38.9724 17.283 38.8443 17.1929C38.3692 16.8327 37.83 16.5836 37.232 16.4618C37.0345 16.4141 36.8263 16.3823 36.6127 16.3664C36.4633 16.3505 36.3084 16.3452 36.1483 16.3452C36.0735 16.3452 35.9988 16.3452 35.924 16.3505C35.7906 16.3558 35.6571 16.3664 35.529 16.377C35.214 16.4141 34.9097 16.4777 34.6267 16.5677C34.0448 16.7426 33.527 17.0393 33.0732 17.442C32.9717 17.532 32.8756 17.6221 32.7849 17.7228C31.92 18.6447 31.4929 19.9374 31.4929 21.6011C31.4929 23.2648 31.92 24.4622 32.7742 25.3523C32.8703 25.4529 32.9717 25.5483 33.0732 25.6278C33.5216 26.0199 34.0395 26.2954 34.6267 26.4702C34.9097 26.555 35.2087 26.6133 35.529 26.6451C35.6571 26.6663 35.7852 26.6715 35.924 26.6768C36.0255 26.6874 36.1322 26.6874 36.239 26.6874C36.3672 26.6874 36.4899 26.6821 36.6127 26.6768C36.8263 26.6662 37.0345 26.6451 37.232 26.608C37.8406 26.5126 38.3798 26.3166 38.8443 26.0199C38.9297 25.9669 39.0152 25.9139 39.0952 25.8503C39.1379 25.8185 39.1753 25.7867 39.218 25.7496C39.5811 25.4635 39.88 25.1086 40.1203 24.7006C40.3338 24.3403 40.5046 23.9429 40.6221 23.4979L40.1203 23.429L39.218 23.3124L38.871 23.2648C38.871 23.2648 38.855 23.3124 38.8443 23.3336C38.5934 24.0118 38.2517 24.5099 37.8246 24.8278C37.6431 24.9602 37.4456 25.0715 37.232 25.1456C37.0398 25.2198 36.8316 25.2675 36.6127 25.294C36.4899 25.3099 36.3672 25.3152 36.239 25.3152C36.1322 25.3152 36.0255 25.3099 35.924 25.2993C35.7852 25.2887 35.6571 25.2675 35.529 25.2357C35.2033 25.1615 34.899 25.0291 34.6267 24.8436C34.4612 24.7324 34.3011 24.5999 34.1569 24.4463C33.5964 23.8688 33.2867 23.0369 33.2227 21.9455H40.6701C40.6755 21.7495 40.6808 21.6011 40.6808 21.5004ZM33.3188 20.5732C33.3775 19.7043 33.6711 19.0102 34.1996 18.4963C34.3331 18.3639 34.4773 18.2526 34.6267 18.1519C34.899 17.9771 35.2033 17.8499 35.529 17.7863C35.6571 17.7599 35.7852 17.7387 35.924 17.7334C35.9988 17.7334 36.0735 17.7228 36.1536 17.7228C36.3138 17.7228 36.4686 17.7334 36.6127 17.7599C36.8316 17.7863 37.0398 17.8446 37.232 17.9294C37.6217 18.0883 37.9581 18.3427 38.2517 18.6923C38.5453 19.0473 38.7482 19.5507 38.8443 20.2077C38.8603 20.3242 38.8763 20.4461 38.887 20.5732H33.3188Z" fill="#D9D9D9"/>
<path d="M46.6762 26.4646C46.404 26.5176 46.1424 26.56 45.9021 26.5865C45.774 26.5971 45.6459 26.6077 45.5284 26.6077C45.4857 26.613 45.443 26.613 45.4003 26.613C44.7863 26.613 44.3112 26.5176 43.9749 26.3216C43.9535 26.311 43.9375 26.3004 43.9161 26.2845C43.6332 26.1203 43.4303 25.903 43.3022 25.6434C43.2862 25.6169 43.2701 25.5904 43.2595 25.5639C43.1207 25.246 43.0566 24.5838 43.0566 23.5718V17.8549H41.802V16.5569H43.0566V14.1038L43.3022 13.9554L43.9161 13.5898L44.749 13.0918V16.5569H46.4467V17.8549H44.749V23.6671C44.749 24.1493 44.7757 24.4566 44.8397 24.5943C44.8984 24.7321 44.9945 24.8434 45.128 24.9228C45.2294 24.9811 45.3629 25.0235 45.5284 25.0394C45.5818 25.0394 45.6405 25.0447 45.7046 25.0447C45.7633 25.0447 45.8274 25.0447 45.9021 25.0341C46.0569 25.0288 46.2385 25.0076 46.4467 24.9758L46.6762 26.4646Z" fill="#D9D9D9"/>
</g>
<defs>
<clipPath id="clip0_735_1248">
<rect width="61" height="27" fill="white"/>
</clipPath>
</defs>
</svg>
